<svg xmlns="http://www.w3.org/2000/svg" width="220" height="54" viewBox="0 0 220 54" role="img" aria-labelledby="title">
  <title id="title">Sourcing OS email logo</title>
  <rect x="1" y="7" width="40" height="40" rx="10" fill="#0f766e"/>
  <path d="M12 21c1.8-2.6 5.2-4 9.1-4 5.2 0 8.4 2.2 8.4 5.5 0 2.9-2.1 4.4-6.6 5.2l-4.1.7c-1.9.3-2.9.9-2.9 1.9 0 1.3 1.5 2.1 4.2 2.1 3 0 5-1 6.2-2.9l4.2 2.5c-1.9 3.2-5.5 4.9-10.3 4.9-5.5 0-9-2.4-9-6 0-3 2.2-4.8 6.7-5.5l4-.7c1.9-.3 2.8-.8 2.8-1.8 0-1.2-1.3-1.9-3.6-1.9-2.4 0-4.1.8-5.2 2.4L12 21z" fill="#fff"/>
  <text x="52" y="27" font-family="Inter, ui-sans-serif, system-ui, sans-serif" font-size="18" font-weight="750" fill="#18181b">Sourcing OS</text>
  <text x="53" y="42" font-family="Inter, ui-sans-serif, system-ui, sans-serif" font-size="10" font-weight="650" letter-spacing=".08em" fill="#71717a">MANHATTAN MF</text>
</svg>
