<svg xmlns="http://www.w3.org/2000/svg" width="360" height="88" viewBox="0 0 360 88" role="img" aria-labelledby="title">
  <title id="title">Sourcing OS</title>
  <rect x="6" y="12" width="64" height="64" rx="16" fill="#0f766e"/>
  <path d="M24 34.5c2.9-4.1 8.3-6.3 14.5-6.3 8.3 0 13.4 3.5 13.4 8.8 0 4.6-3.4 7.1-10.5 8.3l-6.5 1.1c-3.1.5-4.6 1.4-4.6 3.1 0 2.1 2.4 3.4 6.6 3.4 4.7 0 8-1.6 9.9-4.6l6.6 3.9c-3 5.1-8.8 7.8-16.4 7.8-8.7 0-14.4-3.8-14.4-9.5 0-4.8 3.5-7.6 10.7-8.8l6.3-1.1c3-.5 4.4-1.3 4.4-2.9 0-1.9-2.1-3-5.7-3-3.8 0-6.6 1.3-8.3 3.8L24 34.5z" fill="#fff"/>
  <text x="88" y="43" font-family="Inter, ui-sans-serif, system-ui, sans-serif" font-size="24" font-weight="750" fill="#18181b">Sourcing OS</text>
  <text x="89" y="64" font-family="Inter, ui-sans-serif, system-ui, sans-serif" font-size="12" font-weight="650" letter-spacing=".08em" fill="#71717a">MANHATTAN MF</text>
</svg>
